<svg xmlns="http://www.w3.org/2000/svg" xmlns:xlink="http://www.w3.org/1999/xlink" width="257.2" height="38.94" viewBox="0 0 257.2 38.94">
  <defs>
    <linearGradient id="linear-gradient" x1="-1.647" y1="1.462" x2="-0.778" y2="-0.395" gradientUnits="objectBoundingBox">
      <stop offset="0" stop-color="#2f9cd9"/>
      <stop offset="1" stop-color="#8ed0f3"/>
    </linearGradient>
    <linearGradient id="linear-gradient-3" x1="-0.516" y1="1.491" x2="0.335" y2="-0.425" xlink:href="#linear-gradient"/>
    <linearGradient id="linear-gradient-5" x1="1.948" y1="1.491" x2="2.955" y2="-0.425" xlink:href="#linear-gradient"/>
    <linearGradient id="linear-gradient-7" x1="0.632" y1="1.491" x2="1.362" y2="-0.425" xlink:href="#linear-gradient"/>
  </defs>
  <g id="Group_383" data-name="Group 383" transform="translate(-44.981 -43.704)">
    <g id="Group_382" data-name="Group 382" transform="translate(44.981 43.704)">
      <path id="Path_833" data-name="Path 833" d="M690,118.538a5.02,5.02,0,1,1-5.021,5.02A5.02,5.02,0,0,1,690,118.538Z" transform="translate(-437.821 -89.638)" fill="#0b2035" fill-rule="evenodd"/>
      <g id="Group_381" data-name="Group 381" transform="translate(114.377)">
        <path id="Path_834" data-name="Path 834" d="M610.418,82.194c-9.857,0-14.964-4.145-15.179-12.32l-.008-.3h7.853l.02.268c.271,3.727,2.664,5.539,7.314,5.539,2.838,0,4.809-.544,5.857-1.617a3.444,3.444,0,0,0,.929-2.628c0-1.636-1.037-2.719-3.168-3.318-2.181-.633-4.63-1.308-7.282-2.005-7.29-1.858-10.987-5.328-10.987-10.312.142-7.832,4.812-11.8,13.878-11.8h.247c8.8,0,13.478,3.929,13.909,11.678l.017.306h-4.53a3.818,3.818,0,0,1-3.638-2.272c-1.195-1.989-3.349-3.008-6.393-3.008-3.721.068-5.6,1.394-5.73,4.054,0,2.143,2.34,3.754,6.954,4.771a90.674,90.674,0,0,1,8.8,2.543c4.2,1.449,6.22,4.6,6,9.369C624.849,78.478,619.849,82.194,610.418,82.194Z" transform="translate(-497.11 -43.704)" fill="#2e9bd9"/>
        <path id="Path_835" data-name="Path 835" d="M509.732,82.674V49.544a4.141,4.141,0,0,1,1.189-2.945,3.877,3.877,0,0,1,2.9-1.251H527.34c3.78,0,6.718.8,8.732,2.385a8.816,8.816,0,0,1,3.067,7.2,10.571,10.571,0,0,1-1.087,4.776,7.827,7.827,0,0,1-2.965,2.8,8.773,8.773,0,0,1,3.9,3.147,9.7,9.7,0,0,1,1.42,5.543c0,3.665-1.208,6.511-3.591,8.461-2.362,2-5.765,3.022-10.11,3.022Zm16.446-7.232a7.567,7.567,0,0,0,4.475-1.106,4.012,4.012,0,0,0,1.254-3.357,4.332,4.332,0,0,0-1.27-3.475,7.794,7.794,0,0,0-4.565-1.093H517.7v9.03Zm-.317-15.84a8.434,8.434,0,0,0,3.956-.9,3.465,3.465,0,0,0,1.14-2.821,3.158,3.158,0,0,0-1.151-2.725,6.974,6.974,0,0,0-4.05-.892H517.7V59.6Z" transform="translate(-444.629 -44.712)" fill="#2e9bd9"/>
        <path id="Path_836" data-name="Path 836" d="M341.153,82.674V49.544a4.14,4.14,0,0,1,1.189-2.945,3.877,3.877,0,0,1,2.9-1.251h3.985v29.99h17.952v7.338Z" transform="translate(-341.153 -44.712)" fill="#2e9bd9"/>
        <path id="Path_837" data-name="Path 837" d="M439.2,82.674l-2.429-7.5H422.942l-2.429,7.5h-8.647l12.388-34.706a3.715,3.715,0,0,1,3.863-2.621h6.223l13.408,37.327Zm-4.728-14.307-4.671-14.4-4.671,14.4Z" transform="translate(-384.558 -44.712)" fill="#2e9bd9"/>
        <g id="Group_380" data-name="Group 380" transform="translate(0.29 0.289)">
          <g id="Group_379" data-name="Group 379">
            <g id="Group_375" data-name="Group 375" transform="translate(98.129)">
              <path id="Path_838" data-name="Path 838" d="M619.656,62.512a90.091,90.091,0,0,0-8.764-2.535q-7.181-1.584-7.181-5.069.211-4.224,6.019-4.329,4.752,0,6.653,3.168a3.531,3.531,0,0,0,3.379,2.112h4.224q-.634-11.4-13.622-11.4-13.622-.105-13.833,11.51,0,7.286,10.771,10.032,4.013,1.056,7.286,2.007,3.379.95,3.379,3.59.106,4.54-7.075,4.54t-7.6-5.808H596q.317,12.039,14.889,12.038,13.939,0,14.572-10.771Q625.781,64.623,619.656,62.512Z" transform="translate(-596.002 -44.454)" fill="url(#linear-gradient)"/>
              <path id="Path_839" data-name="Path 839" d="M619.656,62.512a90.091,90.091,0,0,0-8.764-2.535q-7.181-1.584-7.181-5.069.211-4.224,6.019-4.329,4.752,0,6.653,3.168a3.531,3.531,0,0,0,3.379,2.112h4.224q-.634-11.4-13.622-11.4-13.622-.105-13.833,11.51,0,7.286,10.771,10.032,4.013,1.056,7.286,2.007,3.379.95,3.379,3.59.106,4.54-7.075,4.54t-7.6-5.808H596q.317,12.039,14.889,12.038,13.939,0,14.572-10.771Q625.781,64.623,619.656,62.512Z" transform="translate(-596.002 -44.454)" fill="url(#linear-gradient)"/>
            </g>
            <g id="Group_376" data-name="Group 376" transform="translate(65.103 0.635)">
              <path id="Path_840" data-name="Path 840" d="M534.876,62.993a7.832,7.832,0,0,0,3.379-2.957,10.244,10.244,0,0,0,1.056-4.647,8.5,8.5,0,0,0-2.957-6.969Q533.4,46.1,527.8,46.1H514.284a3.582,3.582,0,0,0-2.692,1.162A3.843,3.843,0,0,0,510.483,50V82.845h16.684q6.442,0,9.926-2.957,3.485-2.851,3.485-8.237a9.39,9.39,0,0,0-1.373-5.386A8.778,8.778,0,0,0,534.876,62.993Zm-17-10.56h8.342a7.19,7.19,0,0,1,4.224.95,3.455,3.455,0,0,1,1.267,2.957,3.76,3.76,0,0,1-1.267,3.062,8.666,8.666,0,0,1-4.118.95h-8.448Zm13.411,22.6a7.8,7.8,0,0,1-4.646,1.161h-8.765V66.583h8.659a8.016,8.016,0,0,1,4.752,1.161,4.583,4.583,0,0,1,1.373,3.7A4.258,4.258,0,0,1,531.286,75.031Z" transform="translate(-510.483 -46.097)" fill="url(#linear-gradient-3)"/>
              <path id="Path_841" data-name="Path 841" d="M534.876,62.993a7.832,7.832,0,0,0,3.379-2.957,10.244,10.244,0,0,0,1.056-4.647,8.5,8.5,0,0,0-2.957-6.969Q533.4,46.1,527.8,46.1H514.284a3.582,3.582,0,0,0-2.692,1.162A3.843,3.843,0,0,0,510.483,50V82.845h16.684q6.442,0,9.926-2.957,3.485-2.851,3.485-8.237a9.39,9.39,0,0,0-1.373-5.386A8.778,8.778,0,0,0,534.876,62.993Zm-17-10.56h8.342a7.19,7.19,0,0,1,4.224.95,3.455,3.455,0,0,1,1.267,2.957,3.76,3.76,0,0,1-1.267,3.062,8.666,8.666,0,0,1-4.118.95h-8.448Zm13.411,22.6a7.8,7.8,0,0,1-4.646,1.161h-8.765V66.583h8.659a8.016,8.016,0,0,1,4.752,1.161,4.583,4.583,0,0,1,1.373,3.7A4.258,4.258,0,0,1,531.286,75.031Z" transform="translate(-510.483 -46.097)" fill="url(#linear-gradient-3)"/>
            </g>
            <g id="Group_377" data-name="Group 377" transform="translate(0 0.635)">
              <path id="Path_842" data-name="Path 842" d="M349.4,46.1h-3.7a3.582,3.582,0,0,0-2.692,1.162A3.843,3.843,0,0,0,341.9,50V82.845h25.449V76.087H349.4Z" transform="translate(-341.903 -46.097)" fill="url(#linear-gradient-5)"/>
              <path id="Path_843" data-name="Path 843" d="M349.4,46.1h-3.7a3.582,3.582,0,0,0-2.692,1.162A3.843,3.843,0,0,0,341.9,50V82.845h25.449V76.087H349.4Z" transform="translate(-341.903 -46.097)" fill="url(#linear-gradient-5)"/>
            </g>
            <g id="Group_378" data-name="Group 378" transform="translate(27.43 0.635)">
              <path id="Path_844" data-name="Path 844" d="M434.789,46.1H428.77a3.436,3.436,0,0,0-3.59,2.429L412.931,82.845h8.025l2.429-7.5h14.256l2.429,7.5h7.92Zm-9.4,23.02,5.069-15.629,5.069,15.629Z" transform="translate(-412.931 -46.097)" fill="url(#linear-gradient-7)"/>
              <path id="Path_845" data-name="Path 845" d="M434.789,46.1H428.77a3.436,3.436,0,0,0-3.59,2.429L412.931,82.845h8.025l2.429-7.5h14.256l2.429,7.5h7.92Zm-9.4,23.02,5.069-15.629,5.069,15.629Z" transform="translate(-412.931 -46.097)" fill="url(#linear-gradient-7)"/>
            </g>
          </g>
        </g>
      </g>
      <path id="Path_846" data-name="Path 846" d="M191.94,44.454V54.527H206.1c9.139,0,10.169,6.823,10.169,8.882s-1.931,9.268-8.11,9.268H181.9l-11.586,9.687h38.361c8.367,0,17.636-7.241,17.636-18.955S217.3,44.454,207.388,44.454Z" transform="translate(-121.912 -44.164)" fill="#0b2035"/>
      <path id="Path_847" data-name="Path 847" d="M104.968,44.454V57.487L74.846,82.976,54.893,66.112V82.976H44.981V44.454L74.846,69.459Z" transform="translate(-44.981 -44.164)" fill="#0b2035"/>
    </g>
  </g>
</svg>
